<svg xmlns="http://www.w3.org/2000/svg" version="1.1" xmlns:xlink="http://www.w3.org/1999/xlink" xmlns:svgjs="http://svgjs.dev/svgjs" width="1500" height="371" viewBox="0 0 1500 371"><g transform="matrix(1,0,0,1,-0.9090909090911055,0.48180234946190126)"><svg viewBox="0 0 396 98" data-background-color="#0a1627" preserveAspectRatio="xMidYMid meet" height="371" width="1500" xmlns="http://www.w3.org/2000/svg" xmlns:xlink="http://www.w3.org/1999/xlink"><g id="tight-bounds" transform="matrix(1,0,0,1,0.24000000000003752,-0.12726854514087904)"><svg viewBox="0 0 395.5199999999999 98.25453709028176" height="98.25453709028176" width="395.5199999999999"><g><svg viewBox="0 0 395.5199999999999 98.25453709028176" height="98.25453709028176" width="395.5199999999999"><g><svg viewBox="0 0 395.5199999999999 98.25453709028176" height="98.25453709028176" width="395.5199999999999"><g id="textblocktransform"><svg viewBox="0 0 395.5199999999999 98.25453709028176" height="98.25453709028176" width="395.5199999999999" id="textblock"><g><svg viewBox="0 0 395.5199999999999 98.25453709028176" height="98.25453709028176" width="395.5199999999999"><g transform="matrix(1,0,0,1,0,0)"><svg width="395.5199999999999" viewBox="2.27 -40.43 169.81 42.19" height="98.25453709028176" data-palette-color="#fe0039"><path d="M40.94 0L40.94-40.43 42.7-40.43 42.7 0 40.94 0ZM2.27 0L2.27-40.43 4.03-40.43 4.03 0 2.27 0ZM37.43 0L37.43-40.43 39.18-40.43 39.18 0 37.43 0ZM33.91 0L33.91-40.43 35.67-40.43 35.67 0 33.91 0ZM30.4-24.63L30.4-40.43 32.15-40.43 32.15 0 30.4 0 30.4-15.84 14.58-15.84 14.58 0 12.82 0 12.82-40.43 14.58-40.43 14.58-24.63 30.4-24.63ZM9.3 0L9.3-40.43 11.06-40.43 11.06 0 9.3 0ZM5.79 0L5.79-40.43 7.54-40.43 7.54 0 5.79 0ZM14.58-17.6L30.4-17.6 30.4-19.36 14.58-19.36 14.58-17.6ZM14.58-21.12L30.4-21.12 30.4-22.88 14.58-22.88 14.58-21.12ZM60.78-22.55Q58.71-20.48 58.71-17.58 58.71-14.67 60.78-12.61 62.84-10.55 65.74-10.55 68.65-10.55 70.71-12.61 72.78-14.67 72.78-17.58 72.78-20.48 70.71-22.55 68.65-24.61 65.74-24.61 62.84-24.61 60.78-22.55ZM59.53-11.36Q56.96-13.94 56.96-17.58 56.96-21.22 59.53-23.79 62.11-26.37 65.74-26.37 69.38-26.37 71.96-23.79 74.53-21.22 74.53-17.58 74.53-13.94 71.96-11.36 69.38-8.79 65.74-8.79 62.11-8.79 59.53-11.36ZM58.29-25.02Q55.2-21.92 55.2-17.58 55.2-13.23 58.29-10.13 61.37-7.03 65.74-7.03 70.11-7.03 73.2-10.13 76.29-13.23 76.29-17.58 76.29-21.92 73.2-25.02 70.11-28.13 65.74-28.13 61.37-28.13 58.29-25.02ZM55.09-11.4Q53.44-14.23 53.44-17.58 53.44-20.92 55.09-23.75 56.74-26.59 59.57-28.23 62.4-29.88 65.74-29.88 69.09-29.88 71.92-28.23 74.75-26.59 76.4-23.75 78.05-20.92 78.05-17.58 78.05-14.23 76.4-11.4 74.75-8.57 71.92-6.92 69.09-5.27 65.74-5.27 62.4-5.27 59.57-6.92 56.74-8.57 55.09-11.4ZM52.79-23.03Q51.68-20.43 51.68-17.58 51.68-14.72 52.79-12.12 53.9-9.52 55.8-7.63 57.69-5.74 60.29-4.63 62.89-3.52 65.74-3.52 68.6-3.52 71.2-4.63 73.8-5.74 75.69-7.63 77.59-9.52 78.7-12.12 79.81-14.72 79.81-17.58 79.81-20.43 78.7-23.03 77.59-25.63 75.69-27.53 73.8-29.42 71.2-30.53 68.6-31.64 65.74-31.64 62.89-31.64 60.29-30.53 57.69-29.42 55.8-27.53 53.9-25.63 52.79-23.03ZM51.18-11.43Q49.92-14.36 49.92-17.58 49.92-20.8 51.18-23.73 52.44-26.66 54.55-28.77 56.66-30.88 59.59-32.14 62.52-33.4 65.74-33.4 68.97-33.4 71.9-32.14 74.83-30.88 76.94-28.77 79.05-26.66 80.31-23.73 81.56-20.8 81.56-17.58 81.56-14.36 80.31-11.43 79.05-8.5 76.94-6.38 74.83-4.27 71.9-3.02 68.97-1.76 65.74-1.76 62.52-1.76 59.59-3.02 56.66-4.27 54.55-6.38 52.44-8.5 51.18-11.43ZM49.56-24.4Q48.17-21.14 48.17-17.58 48.17-14.01 49.56-10.75 50.95-7.5 53.31-5.14 55.66-2.78 58.92-1.39 62.18 0 65.74 0 69.31 0 72.57-1.39 75.83-2.78 78.18-5.14 80.54-7.5 81.93-10.75 83.32-14.01 83.32-17.58 83.32-21.14 81.93-24.4 80.54-27.66 78.18-30.02 75.83-32.37 72.57-33.76 69.31-35.16 65.74-35.16 62.18-35.16 58.92-33.76 55.66-32.37 53.31-30.02 50.95-27.66 49.56-24.4ZM47.95-10.07Q46.41-13.65 46.41-17.58 46.41-21.51 47.95-25.09 49.48-28.66 52.07-31.25 54.66-33.84 58.24-35.38 61.81-36.91 65.74-36.91 69.68-36.91 73.25-35.38 76.83-33.84 79.42-31.25 82-28.66 83.54-25.09 85.08-21.51 85.08-17.58 85.08-13.65 83.54-10.07 82-6.49 79.42-3.91 76.83-1.32 73.25 0.22 69.68 1.76 65.74 1.76 61.81 1.76 58.24 0.22 54.66-1.32 52.07-3.91 49.48-6.49 47.95-10.07ZM89.01 0L89.01-35.16 90.77-35.16 90.77 0 89.01 0ZM99.56 0L99.56-35.16 101.31-35.16 101.31-8.79 114.28-8.79 114.28-7.03 101.31-7.03 101.31-5.27 114.28-5.27 114.28-3.52 101.31-3.52 101.31-1.76 114.28-1.76 114.28 0 99.56 0ZM96.04 0L96.04-35.16 97.8-35.16 97.8 0 96.04 0ZM92.52 0L92.52-35.16 94.28-35.16 94.28 0 92.52 0ZM143.11 0L143.11-17.33Q143.11-20.46 141.18-22.17 139.25-23.88 136.08-23.88L136.08-23.88Q133.39-23.88 131.46-22.02 129.53-20.17 129.53-17.58L129.53-17.58Q129.53-16.11 129.92-14.95 130.31-13.79 130.99-13.02 131.66-12.26 132.59-11.76 133.51-11.25 134.53-11.04 135.54-10.82 136.69-10.82L136.69-10.82Q139.47-10.82 141.76-12.18L141.76-12.18 141.76-10.42Q139.4-9.18 136.66-9.18L136.66-9.18Q134.9-9.18 133.35-9.66 131.8-10.13 130.53-11.1 129.26-12.06 128.52-13.73 127.78-15.41 127.78-17.58L127.78-17.58Q127.78-20.95 130.14-23.29 132.51-25.63 136.08-25.63L136.08-25.63Q140.01-25.63 142.44-23.43 144.87-21.22 144.87-17.33L144.87-17.33 144.87 0 143.11 0ZM148.38-17.33L148.38-17.33 148.38 0 146.62 0 146.62-17.33Q146.62-21.95 143.67-24.67 140.72-27.39 136.08-27.39L136.08-27.39Q131.78-27.39 128.9-24.54 126.02-21.68 126.02-17.58L126.02-17.58Q126.02-15.09 126.88-13.11 127.75-11.13 129.24-9.94 130.73-8.74 132.57-8.12 134.42-7.5 136.47-7.5L136.47-7.5Q139.25-7.5 141.76-8.79L141.76-8.79 141.76-6.93Q139.13-5.83 136.44-5.83L136.44-5.83Q134.03-5.83 131.85-6.58 129.68-7.32 127.97-8.75 126.26-10.18 125.26-12.46 124.26-14.75 124.26-17.58L124.26-17.58Q124.26-22.39 127.67-25.77 131.07-29.15 136.08-29.15L136.08-29.15Q139.59-29.15 142.38-27.72 145.16-26.29 146.77-23.58 148.38-20.87 148.38-17.33ZM151.9-17.33L151.9-17.33 151.9 0 150.14 0 150.14-17.33Q150.14-21.36 148.3-24.48 146.45-27.59 143.25-29.25 140.06-30.91 136.08-30.91L136.08-30.91Q132.29-30.91 129.17-29.11 126.04-27.32 124.27-24.27 122.5-21.22 122.5-17.58L122.5-17.58Q122.5-14.45 123.65-11.88 124.8-9.3 126.74-7.64 128.68-5.98 131.16-5.07 133.64-4.15 136.35-4.15L136.35-4.15Q139.1-4.15 141.76-5.3L141.76-5.3 141.76-3.52Q138.98-2.47 136.3-2.47L136.3-2.47Q132.07-2.47 128.53-4.37 124.99-6.27 122.87-9.77 120.74-13.26 120.74-17.58L120.74-17.58Q120.74-20.65 121.93-23.44 123.11-26.22 125.14-28.25 127.17-30.27 130.02-31.47 132.88-32.67 136.08-32.67L136.08-32.67Q140.54-32.67 144.15-30.76 147.75-28.86 149.82-25.34 151.9-21.83 151.9-17.33ZM155.41-17.33L155.41-17.33 155.41 0 153.65 0 153.65-17.33Q153.65-22.31 151.34-26.23 149.02-30.15 145.01-32.29 141.01-34.42 136.08-34.42L136.08-34.42Q131.34-34.42 127.41-32.15 123.48-29.88 121.23-26.01 118.99-22.14 118.99-17.58L118.99-17.58Q118.99-14.58 119.95-11.88 120.92-9.18 122.59-7.17 124.26-5.15 126.45-3.69 128.63-2.22 131.16-1.46 133.68-0.71 136.3-0.71L136.3-0.71Q139.18-0.71 141.76-1.81L141.76-1.81 141.76 0Q139.06 0.95 136.2 0.95L136.2 0.95Q133.24 0.95 130.45 0.12 127.65-0.71 125.27-2.33 122.89-3.96 121.09-6.16 119.28-8.37 118.25-11.33 117.23-14.28 117.23-17.58L117.23-17.58Q117.23-21.36 118.66-24.79 120.09-28.22 122.56-30.73 125.04-33.23 128.57-34.7 132.1-36.18 136.08-36.18L136.08-36.18Q140.13-36.18 143.69-34.81 147.26-33.45 149.85-31.02 152.43-28.59 153.92-25.05 155.41-21.51 155.41-17.33ZM172.08-5.27L159.78-5.27 159.78-7.03 172.08-7.03 172.08-5.27ZM172.08-1.76L159.78-1.76 159.78-3.52 172.08-3.52 172.08-1.76ZM172.08 1.76L159.78 1.76 159.78 0 172.08 0 172.08 1.76ZM170.33-10.55L170.33-40.43 172.08-40.43 172.08-10.55 170.33-10.55ZM166.81-10.55L166.81-40.43 168.57-40.43 168.57-10.55 166.81-10.55ZM163.3-10.55L163.3-40.43 165.05-40.43 165.05-10.55 163.3-10.55ZM159.78-10.55L159.78-40.43 161.54-40.43 161.54-10.55 159.78-10.55Z" opacity="1" transform="matrix(1,0,0,1,0,0)" fill="#fe0039" class="wordmark-text-0" data-fill-palette-color="primary" id="text-0"></path></svg></g></svg></g></svg></g></svg></g><g></g></svg></g><defs></defs></svg><rect width="395.5199999999999" height="98.25453709028176" fill="none" stroke="none" visibility="hidden"></rect></g></svg></g></svg>