<svg xmlns="http://www.w3.org/2000/svg" version="1.1" xmlns:xlink="http://www.w3.org/1999/xlink" xmlns:svgjs="http://svgjs.dev/svgjs" width="2000" height="1500" viewBox="0 0 2000 1500"><rect width="2000" height="1500" fill="#000000"></rect><g transform="matrix(0.75,0,0,0.75,249.090909090909,315.17290756573186)"><svg viewBox="0 0 396 230" data-background-color="#ffffff" preserveAspectRatio="xMidYMid meet" height="1161" width="2000" xmlns="http://www.w3.org/2000/svg" xmlns:xlink="http://www.w3.org/1999/xlink"><g id="tight-bounds" transform="matrix(1,0,0,1,0.2400000000000091,-0.14472436418986945)"><svg viewBox="0 0 395.52 230.28944872837974" height="230.28944872837974" width="395.52"><g><svg viewBox="0 0 395.52 230.28944872837974" height="230.28944872837974" width="395.52"><g><svg viewBox="0 0 395.52 230.28944872837974" height="230.28944872837974" width="395.52"><g id="textblocktransform"><svg viewBox="0 0 395.52 230.28944872837974" height="230.28944872837974" width="395.52" id="textblock"><g><rect width="395.52" height="160.3636849989986" fill="none" stroke-width="9.018103199999999" stroke="#ffffff" data-fill-palette-color="none" data-stroke-palette-color="tertiary"></rect><rect width="395.52" height="69.92576372938113" y="160.3636849989986" fill="#ffffff" data-fill-palette-color="tertiary"></rect></g><g><svg viewBox="0 0 395.52 160.3636849989986" height="160.3636849989986" width="395.52"><g transform="matrix(1,0,0,1,23.607599999999998,23.607599999999998)"><svg width="348.3048" viewBox="5.03 -39.11 121.89 39.6" height="113.1484849989986" data-palette-color="#000000"><path d="M11.08 0L5.03 0 5.03-35.77 11.08-35.77 11.08-20.75 28.86-20.75 28.86-35.77 34.91-35.77 34.91 0 28.86 0 28.86-16.46 11.08-16.46 11.08 0ZM54.95 0.49L54.95 0.49Q51.9 0.49 49.57-0.54 47.24-1.56 45.65-3.31 44.06-5.05 43.25-7.35 42.43-9.64 42.43-12.21L42.43-12.21Q42.43-15.16 43.48-17.74 44.53-20.31 46.42-22.23 48.31-24.15 50.93-25.26 53.54-26.37 56.66-26.37L56.66-26.37Q59.71-26.37 62.06-25.34 64.4-24.32 65.99-22.56 67.58-20.8 68.39-18.49 69.21-16.19 69.21-13.62L69.21-13.62Q69.21-10.64 68.15-8.07 67.09-5.49 65.18-3.59 63.28-1.68 60.67-0.6 58.05 0.49 54.95 0.49ZM55.98-3.74L55.98-3.74Q57.54-3.74 58.84-4.38 60.13-5.03 61.06-6.19 61.98-7.35 62.5-8.96 63.01-10.57 63.01-12.52L63.01-12.52Q63.01-14.43 62.51-16.16 62.01-17.9 61.06-19.23 60.1-20.56 58.74-21.35 57.37-22.14 55.64-22.14L55.64-22.14Q54.05-22.14 52.76-21.48 51.46-20.83 50.55-19.65 49.63-18.48 49.12-16.86 48.61-15.23 48.61-13.31L48.61-13.31Q48.61-11.38 49.11-9.64 49.61-7.91 50.56-6.59 51.51-5.27 52.88-4.5 54.25-3.74 55.98-3.74ZM75.8 0L75.8-39.11 81.71-39.11 81.71 0 75.8 0ZM103.83-3.81L103.83-3.81Q103.19-3.27 102.3-2.53 101.41-1.78 100.32-1.11 99.24-0.44 97.95 0.02 96.67 0.49 95.26 0.49L95.26 0.49Q93.82 0.49 92.58-0.04 91.35-0.56 90.43-1.5 89.52-2.44 88.99-3.75 88.47-5.05 88.47-6.64L88.47-6.64Q88.47-8.3 89.14-9.89 89.81-11.47 91.39-12.72 92.96-13.96 95.55-14.73 98.14-15.5 101.95-15.5L101.95-15.5 103.73-15.5 103.73-17.5Q103.73-18.58 103.36-19.43 103-20.29 102.34-20.9 101.68-21.51 100.76-21.83 99.85-22.14 98.72-22.14L98.72-22.14Q97.84-22.14 96.84-21.94 95.84-21.73 94.87-21.36 93.89-21 92.96-20.5 92.03-20 91.3-19.41L91.3-19.41 90.86-19.65 89.74-23.75Q92.69-25.29 95.23-25.83 97.77-26.37 99.99-26.37L99.99-26.37Q102.29-26.37 104.08-25.9 105.88-25.44 107.12-24.48 108.37-23.51 109.01-22.03 109.66-20.56 109.66-18.53L109.66-18.53 109.66-6.57Q109.66-6.2 109.72-5.76 109.78-5.32 109.97-4.93 110.15-4.54 110.5-4.27 110.86-4 111.44-4L111.44-4Q111.78-4 112.27-4.1 112.76-4.2 113.25-4.42L113.25-4.42 113.25-1.49Q111.93-0.59 110.62-0.05 109.32 0.49 108.07 0.49L108.07 0.49Q107.1 0.49 106.39 0.12 105.68-0.24 105.19-0.84 104.7-1.44 104.37-2.21 104.05-2.98 103.83-3.81ZM103.73-6.96L103.73-12.62 102.19-12.62Q99.65-12.62 98.1-12.27 96.55-11.91 95.7-11.29 94.84-10.67 94.56-9.85 94.28-9.03 94.28-8.08L94.28-8.08Q94.28-7.08 94.57-6.32 94.87-5.57 95.37-5.05 95.87-4.54 96.55-4.27 97.23-4 98.01-4L98.01-4Q98.6-4 99.24-4.14 99.87-4.27 100.57-4.61 101.26-4.96 102.04-5.52 102.82-6.08 103.73-6.96L103.73-6.96ZM124.87-12.94L120.6-12.94 119.47-35.77 125.97-35.77 124.87-12.94ZM122.77 0.49L122.77 0.49Q121.91 0.49 121.17 0.16 120.42-0.17 119.88-0.72 119.33-1.27 119.01-2.01 118.69-2.76 118.69-3.59L118.69-3.59Q118.69-4.44 119.02-5.21 119.35-5.98 119.91-6.56 120.47-7.13 121.23-7.46 121.99-7.79 122.84-7.79L122.84-7.79Q123.7-7.79 124.44-7.46 125.19-7.13 125.73-6.56 126.28-5.98 126.6-5.22 126.92-4.47 126.92-3.61L126.92-3.61Q126.92-2.76 126.59-2.01 126.26-1.27 125.7-0.72 125.14-0.17 124.38 0.16 123.62 0.49 122.77 0.49Z" opacity="1" transform="matrix(1,0,0,1,0,0)" fill="#ffffff" class="wordmark-text-0" data-fill-palette-color="primary" id="text-0"></path></svg></g></svg></g></svg></g></svg></g><g></g></svg></g><defs></defs></svg><rect width="395.52" height="230.28944872837974" fill="none" stroke="none" visibility="hidden"></rect></g></svg></g></svg>